name rise44.9368peak50.754fall52.0217.mot
datacolumns 19
datarows 18
range 9.16497100000000 9.19330500000000
endheader
time	ground_force1_vx	ground_force1_vy	ground_force1_vz	ground_force1_px	ground_force1_py	ground_force1_pz	ground_force2_vx	ground_force2_vy	ground_force2_vz	ground_force2_px	ground_force2_py	ground_force2_pz	ground_torque1_x	ground_torque1_y	ground_torque1_z	ground_torque2_x	ground_torque2_y	ground_torque2_z	
9.16497100000000	40.41418600000000	782.98397599999998	59.61746200000000	0.36208800000000	0.00000000000000	0.12423600000000	0.00000000000000	0.00000000000000	0.00000000000000	0.00000000000000	0.00000000000000	0.00000000000000	0.00000000000000	31.75015900000000	0.00000000000000	0.00000000000000	0.00000000000000	0.00000000000000	
9.16663600000000	39.61490700000000	783.00801000000001	59.60526600000000	0.36036800000000	0.00000000000000	0.12434800000000	0.00000000000000	0.00000000000000	0.00000000000000	0.00000000000000	0.00000000000000	0.00000000000000	0.00000000000000	31.74163000000000	0.00000000000000	0.00000000000000	0.00000000000000	0.00000000000000	
9.16830400000000	38.83289400000000	782.93561999999997	59.58971600000000	0.35865100000000	0.00000000000000	0.12446400000000	0.00000000000000	0.00000000000000	0.00000000000000	0.00000000000000	0.00000000000000	0.00000000000000	0.00000000000000	31.72803100000000	0.00000000000000	0.00000000000000	0.00000000000000	0.00000000000000	
9.16996600000000	38.06833300000000	782.76820999999995	59.57069300000000	0.35693900000000	0.00000000000000	0.12458200000000	0.00000000000000	0.00000000000000	0.00000000000000	0.00000000000000	0.00000000000000	0.00000000000000	0.00000000000000	31.70935600000000	0.00000000000000	0.00000000000000	0.00000000000000	0.00000000000000	
9.17163100000000	37.32131800000000	782.50726699999996	59.54804500000000	0.35523200000000	0.00000000000000	0.12470200000000	0.00000000000000	0.00000000000000	0.00000000000000	0.00000000000000	0.00000000000000	0.00000000000000	0.00000000000000	31.68558600000000	0.00000000000000	0.00000000000000	0.00000000000000	0.00000000000000	
9.17330500000000	36.59186400000000	782.15436699999998	59.52159300000000	0.35353100000000	0.00000000000000	0.12482500000000	0.00000000000000	0.00000000000000	0.00000000000000	0.00000000000000	0.00000000000000	0.00000000000000	0.00000000000000	31.65670000000000	0.00000000000000	0.00000000000000	0.00000000000000	0.00000000000000	
9.17497200000000	35.87990100000000	781.71117600000002	59.49113400000000	0.35183600000000	0.00000000000000	0.12495100000000	0.00000000000000	0.00000000000000	0.00000000000000	0.00000000000000	0.00000000000000	0.00000000000000	0.00000000000000	31.62267000000000	0.00000000000000	0.00000000000000	0.00000000000000	0.00000000000000	
9.17663500000000	35.18528900000000	781.17946199999994	59.45644800000000	0.35014800000000	0.00000000000000	0.12507800000000	0.00000000000000	0.00000000000000	0.00000000000000	0.00000000000000	0.00000000000000	0.00000000000000	0.00000000000000	31.58346900000000	0.00000000000000	0.00000000000000	0.00000000000000	0.00000000000000	
9.17830200000000	34.50781800000000	780.56109300000003	59.41729900000000	0.34846800000000	0.00000000000000	0.12520800000000	0.00000000000000	0.00000000000000	0.00000000000000	0.00000000000000	0.00000000000000	0.00000000000000	0.00000000000000	31.53906700000000	0.00000000000000	0.00000000000000	0.00000000000000	0.00000000000000	
9.17997300000000	33.84721500000000	779.85804900000005	59.37344100000000	0.34679500000000	0.00000000000000	0.12534000000000	0.00000000000000	0.00000000000000	0.00000000000000	0.00000000000000	0.00000000000000	0.00000000000000	0.00000000000000	31.48944000000000	0.00000000000000	0.00000000000000	0.00000000000000	0.00000000000000	
9.18163400000000	33.20315100000000	779.07241499999998	59.32462000000000	0.34513100000000	0.00000000000000	0.12547300000000	0.00000000000000	0.00000000000000	0.00000000000000	0.00000000000000	0.00000000000000	0.00000000000000	0.00000000000000	31.43456500000000	0.00000000000000	0.00000000000000	0.00000000000000	0.00000000000000	
9.18329900000000	32.57524500000000	778.20639200000005	59.27058100000000	0.34347600000000	0.00000000000000	0.12560900000000	0.00000000000000	0.00000000000000	0.00000000000000	0.00000000000000	0.00000000000000	0.00000000000000	0.00000000000000	31.37442500000000	0.00000000000000	0.00000000000000	0.00000000000000	0.00000000000000	
9.18496600000000	31.96307000000000	777.26229300000000	59.21107000000000	0.34183100000000	0.00000000000000	0.12574600000000	0.00000000000000	0.00000000000000	0.00000000000000	0.00000000000000	0.00000000000000	0.00000000000000	0.00000000000000	31.30901000000000	0.00000000000000	0.00000000000000	0.00000000000000	0.00000000000000	
9.18663700000000	31.36616100000000	776.24254499999995	59.14583600000000	0.34019500000000	0.00000000000000	0.12588400000000	0.00000000000000	0.00000000000000	0.00000000000000	0.00000000000000	0.00000000000000	0.00000000000000	0.00000000000000	31.23832000000000	0.00000000000000	0.00000000000000	0.00000000000000	0.00000000000000	
9.18830000000000	30.78401800000000	775.14968999999996	59.07464100000000	0.33857000000000	0.00000000000000	0.12602400000000	0.00000000000000	0.00000000000000	0.00000000000000	0.00000000000000	0.00000000000000	0.00000000000000	0.00000000000000	31.16236400000000	0.00000000000000	0.00000000000000	0.00000000000000	0.00000000000000	
9.18996600000000	30.21611400000000	773.98638300000005	58.99725500000000	0.33695600000000	0.00000000000000	0.12616400000000	0.00000000000000	0.00000000000000	0.00000000000000	0.00000000000000	0.00000000000000	0.00000000000000	0.00000000000000	31.08116100000000	0.00000000000000	0.00000000000000	0.00000000000000	0.00000000000000	
9.19164000000000	29.66189900000000	772.75538700000004	58.91346600000000	0.33535300000000	0.00000000000000	0.12630600000000	0.00000000000000	0.00000000000000	0.00000000000000	0.00000000000000	0.00000000000000	0.00000000000000	0.00000000000000	30.99474400000000	0.00000000000000	0.00000000000000	0.00000000000000	0.00000000000000	
9.19330500000000	29.12080700000000	771.45957799999996	58.82308000000000	0.33376200000000	0.00000000000000	0.12644900000000	0.00000000000000	0.00000000000000	0.00000000000000	0.00000000000000	0.00000000000000	0.00000000000000	0.00000000000000	30.90315700000000	0.00000000000000	0.00000000000000	0.00000000000000	0.00000000000000	
